<?xml version="1.0" encoding="utf-8"?>
<!-- Generator: Adobe Illustrator 24.0.1, SVG Export Plug-In . SVG Version: 6.00 Build 0)  -->
<svg version="1.1" id="ebaaab7d-1dc9-45d0-92d6-4c3ff75f4aae"
	 xmlns="http://www.w3.org/2000/svg" xmlns:xlink="http://www.w3.org/1999/xlink" x="0px" y="0px" viewBox="0 0 480.1 572.3"
	 style="enable-background:new 0 0 480.1 572.3;" xml:space="preserve">
<style type="text/css">
	.st0{fill:#E0E0E0;}
	.st1{fill:#3F3D56;}
	.st2{fill:#00A650;}
	.st3{opacity:0.5;}
	.st4{fill:url(#SVGID_1_);}
	.st5{fill:#FFFFFF;}
</style>
<path class="st0" d="M11.4,145c22-62.5,73.2-92.1,95.4-104.9c6.6-3.8,126.5-70.7,233-10.5c41.7,23.6,63.8,56.6,78.2,78.4
	c47.4,71.3,48.4,143.8,48.4,168.1c0,19.4-0.3,50.7-13.1,88.7c-6.2,18.3-25.2,72.4-76,111.6c-61.2,47.3-161,67.4-192.3,30.6
	c-26.6-31.2,14.9-81.3-16.6-119c-22.3-26.8-49.6-9.2-93.8-39c-47.7-32.2-62.9-84.5-66.4-97.3C3.9,236-5.6,193.3,11.4,145z"/>
<title>Job hunt</title>
<g>
	<rect x="4.1" y="18.1" class="st1" width="471.9" height="21.2"/>
	<rect x="4.1" y="157.8" class="st1" width="471.9" height="21.2"/>
	<rect x="4.1" y="194.9" class="st1" width="471.9" height="21.2"/>
	<rect x="327.1" y="120.6" class="st2" width="148.9" height="21.2"/>
	<rect x="169.7" y="281.5" class="st2" width="148.9" height="21.2"/>
	<g class="st3">

			<linearGradient id="SVGID_1_" gradientUnits="userSpaceOnUse" x1="401.5248" y1="36.1609" x2="401.5248" y2="177.8889" gradientTransform="matrix(1 0 0 -1 0 574)">
			<stop  offset="0" style="stop-color:#808080;stop-opacity:0.25"/>
			<stop  offset="0.5351" style="stop-color:#808080;stop-opacity:0.12"/>
			<stop  offset="1" style="stop-color:#808080;stop-opacity:0.1"/>
		</linearGradient>
		<ellipse class="st4" cx="401.5" cy="467" rx="67.1" ry="70.9"/>
	</g>
	<ellipse class="st2" cx="401.5" cy="467" rx="63.1" ry="66.7"/>
	<polygon class="st5" points="441.5,434.8 432,424.8 401.5,456.9 371,424.8 361.6,434.8 392,467 361.6,499.2 371,509.2 401.5,477
		432,509.2 441.5,499.2 411,467 	"/>
</g>
</svg>
